# File created by Blade
# Date/Time:  Tue Sep 30 19:07:19 2014
#---------------------------------------------------------
:version 1.10
:name HOM
:units
  mass 1.0
  length 1.000000
  angle deg
:documentation
     Acclaim Skeleton File
:root
   axis xyz
   order TX TY TZ RX RY RZ
   position 0.000000 0.000000 0.000000
   orientation 0 0 0
:bonedata
   begin
      id 1
      name Spine_dum
      direction 0.000000 1.000000 0.000000
      length 7.508948
      axis 0.0 0.0 0.0 xyz
   end
   begin
      id 2
      name LeftUpLeg_dum
      direction 1.000000 0.000000 0.000000
      length 3.000560
      axis 0.0 0.0 0.0 xyz
   end
   begin
      id 3
      name RightUpLeg_dum
      direction -1.000000 0.000000 0.000000
      length 3.000560
      axis 0.0 0.0 0.0 xyz
   end
   begin
      id 4
      name Spine
      direction 0.000000 1.000000 0.000000
      length 0.000000
      axis 0.0 0.0 0.0 xyz
      dof rx ry rz
   end
   begin
      id 5
      name Spine_dum1
      direction 0.000000 1.000000 0.000000
      length 13.861154
      axis 0.0 0.0 0.0 xyz
   end
   begin
      id 6
      name Spine_dum2
      direction 0.000000 1.000000 0.000000
      length 8.204781
      axis 0.0 0.0 0.0 xyz
   end
   begin
      id 7
      name Spine_dum3
      direction 0.000000 1.000000 0.000000
      length 8.204781
      axis 0.0 0.0 0.0 xyz
   end
   begin
      id 8
      name Head
      direction 0.000000 1.000000 0.000000
      length 4.527550
      axis 0.0 0.0 0.0 xyz
      dof rx ry rz
   end
   begin
      id 9
      name LeftShoulder
      direction 1.000000 0.000000 0.000000
      length 6.635956
      axis 0.0 0.0 -90.0 xyz
      dof rx ry rz
   end
   begin
      id 10
      name LeftArm
      direction 1.000000 0.000000 0.000000
      length 10.274218
      axis 0.0 0.0 -90.0 xyz
      dof rx ry rz
   end
   begin
      id 11
      name LeftForeArm
      direction 1.000000 0.000000 0.000000
      length 8.522147
      axis 0.0 0.0 -90.0 xyz
      dof ry rz rx
   end
   begin
      id 12
      name LeftHand
      direction 0.000000 0.000000 0.000000
      length 0.000000
      axis 0.0 0.0 -90.0 xyz
      dof rx ry rz
   end
   begin
      id 13
      name LeftHand_dum1
      direction 0.000000 0.000000 0.000000
      length 0.000000
      axis 0.0 0.0 -90.0 xyz
   end
   begin
      id 14
      name LeftHand_dum2
      direction 1.000000 0.000000 0.000000
      length 3.937000
      axis 0.0 0.0 -90.0 xyz
   end
   begin
      id 15
      name LeftHandThumb1
      direction 0.000000 0.000000 1.000000
      length 3.937000
      axis 0.0 0.0 -90.0 xyz
      dof rx rz ry
   end
   begin
      id 16
      name RightShoulder
      direction -1.000000 0.000000 0.000000
      length 6.635956
      axis 0.0 0.0 90.0 xyz
      dof rx ry rz
   end
   begin
      id 17
      name RightArm
      direction -1.000000 0.000000 0.000000
      length 10.274218
      axis 0.0 0.0 90.0 xyz
      dof rx ry rz
   end
   begin
      id 18
      name RightForeArm
      direction -1.000000 0.000000 0.000000
      length 8.522147
      axis 0.0 0.0 90.0 xyz
      dof ry rz rx
   end
   begin
      id 19
      name RightHand
      direction 0.000000 0.000000 0.000000
      length 0.000000
      axis 0.0 0.0 90.0 xyz
      dof rx ry rz
   end
   begin
      id 20
      name RightHand_dum1
      direction 0.000000 0.000000 0.000000
      length 0.000000
      axis 0.0 0.0 90.0 xyz
   end
   begin
      id 21
      name RightHand_dum2
      direction -1.000000 0.000000 0.000000
      length 3.937000
      axis 0.0 0.0 90.0 xyz
   end
   begin
      id 22
      name RightHandThumb1
      direction 0.000000 0.000000 1.000000
      length 3.937000
      axis 0.0 0.0 90.0 xyz
      dof rx rz ry
   end
   begin
      id 23
      name LeftUpLeg
      direction 0.000000 -1.000000 0.000000
      length 16.490845
      axis 0.0 0.0 0.0 xyz
      dof rx ry rz
   end
   begin
      id 24
      name LeftLeg
      direction 0.000000 -1.000000 0.000000
      length 14.556576
      axis 0.0 0.0 0.0 xyz
      dof rx ry rz
   end
   begin
      id 25
      name LeftFoot
      direction 0.000000 -0.258819 0.965926
      length 4.831116
      axis 15.0 0.0 0.0 xyz
      dof rx ry rz
   end
   begin
      id 26
      name LeftToeBase
      direction 0.000000 0.000000 1.000000
      length 2.952750
      axis 0.0 0.0 0.0 xyz
      dof rx ry rz
   end
   begin
      id 27
      name RightUpLeg
      direction 0.000000 -1.000000 0.000000
      length 16.490845
      axis 0.0 0.0 0.0 xyz
      dof rx ry rz
   end
   begin
      id 28
      name RightLeg
      direction 0.000000 -1.000000 0.000000
      length 14.556576
      axis 0.0 0.0 0.0 xyz
      dof rx ry rz
   end
   begin
      id 29
      name RightFoot
      direction 0.000000 -0.258819 0.965926
      length 4.831116
      axis 15.0 0.0 0.0 xyz
      dof rx ry rz
   end
   begin
      id 30
      name RightToeBase
      direction 0.000000 0.000000 1.000000
      length 2.952750
      axis 0.0 0.0 0.0 xyz
      dof rx ry rz
   end
:hierarchy
   begin
      root Spine_dum LeftUpLeg_dum RightUpLeg_dum
      Spine_dum Spine
      LeftUpLeg_dum LeftUpLeg
      RightUpLeg_dum RightUpLeg
      Spine Spine_dum1 Spine_dum2 Spine_dum3
      Spine_dum1 Head
      Spine_dum2 LeftShoulder
      Spine_dum3 RightShoulder
      LeftShoulder LeftArm
      LeftArm LeftForeArm
      LeftForeArm LeftHand
      LeftHand LeftHand_dum1 LeftHand_dum2
      LeftHand_dum1 LeftHandThumb1
      RightShoulder RightArm
      RightArm RightForeArm
      RightForeArm RightHand
      RightHand RightHand_dum1 RightHand_dum2
      RightHand_dum1 RightHandThumb1
      LeftUpLeg LeftLeg
      LeftLeg LeftFoot
      LeftFoot LeftToeBase
      RightUpLeg RightLeg
      RightLeg RightFoot
      RightFoot RightToeBase
   end

# File created by Blade
# Date/Time:  Thu Sep 25 19:32:06 2014
# Frame Rate: 120.000 fps
#------------------------------------------------------
:FULLY-SPECIFIED
:DEGREES
233
root -8.140215 32.131359 -6.787056 9.489753 13.791004 -0.143610
Spine -14.404122 -3.111224 -23.859623
Head -1.603180 -14.786713 0.078440
LeftShoulder -12.813096 23.567918 11.986139
LeftArm 20.465004 3.433069 -53.309385
LeftForeArm 11.905195 -0.000000 16.793614
LeftHand -26.121239 -0.000000 -6.147947
LeftHandThumb1 -26.253704 0.000000 33.147579
RightShoulder -18.726192 18.175048 -42.612032
RightArm -6.406826 29.593978 14.992877
RightForeArm 16.645220 -0.000000 26.283852
RightHand 0.798607 -0.000000 -4.898804
RightHandThumb1 -24.326973 -0.000000 -32.862282
LeftUpLeg 7.431930 -8.218628 -7.430106
LeftLeg -4.235268 -0.000000 0.000000
LeftFoot -13.008943 1.062305 -10.510425
LeftToeBase 4.298511 -0.000000 -0.000000
RightUpLeg -11.202575 -4.351732 15.770516
RightLeg 14.589564 -0.000000 -0.000000
RightFoot -13.907824 -15.385989 -4.382638
RightToeBase -5.456449 -0.000000 0.000000
234
root -8.187894 32.128219 -6.788488 9.466418 13.678754 -0.097731
Spine -14.440337 -3.072903 -24.169998
Head -1.481694 -14.756699 -0.137122
LeftShoulder -12.775674 23.679637 11.903705
LeftArm 20.442646 3.721985 -53.318912
LeftForeArm 11.844098 0.000000 16.730710
LeftHand -26.077480 -0.000000 -6.083146
LeftHandThumb1 -26.253704 0.000000 33.147579
RightShoulder -18.703876 18.246014 -42.761674
RightArm -6.157298 29.745987 14.896626
RightForeArm 16.982924 0.000000 26.506394
RightHand 0.867399 -0.000000 -4.879262
RightHandThumb1 -24.326973 -0.000000 -32.862282
LeftUpLeg 7.500874 -8.115255 -7.423195
LeftLeg -4.338248 -0.000000 0.000000
LeftFoot -13.038888 1.030175 -10.453865
LeftToeBase 4.712091 -0.000000 -0.000000
RightUpLeg -11.151340 -4.331288 15.783951
RightLeg 14.552700 -0.000000 -0.000000
RightFoot -13.905694 -15.235977 -4.327103
RightToeBase -5.397270 -0.000000 0.000000
235
root -8.242843 32.126076 -6.793533 9.433829 13.573664 -0.028677
Spine -14.410288 -3.050710 -24.546446
Head -1.413362 -14.710930 -0.284227
LeftShoulder -12.737908 23.714709 11.879902
LeftArm 20.368469 4.022395 -53.324387
LeftForeArm 11.784158 0.000000 16.746543
LeftHand -26.327090 -0.000000 -6.046274
LeftHandThumb1 -26.253704 0.000000 33.147579
RightShoulder -18.606337 18.175837 -42.773621
RightArm -5.951381 30.058299 14.727325
RightForeArm 17.343760 -0.000000 26.697404
RightHand 1.027446 -0.000000 -4.733880
RightHandThumb1 -24.326973 -0.000000 -32.862282
LeftUpLeg 7.555849 -8.070022 -7.426139
LeftLeg -4.425813 -0.000000 0.000000
LeftFoot -13.063828 1.141834 -10.531387
LeftToeBase 4.516225 -0.000000 -0.000000
RightUpLeg -11.103214 -4.318045 15.787529
RightLeg 14.527499 -0.000000 -0.000000
RightFoot -13.885144 -15.100602 -4.290594
RightToeBase -5.332956 -0.000000 0.000000
236
root -8.299887 32.124383 -6.804656 9.400897 13.520779 0.066293
Spine -14.305418 -3.056356 -24.957750
Head -1.385017 -14.648958 -0.353300
LeftShoulder -12.671119 23.727740 11.867412
LeftArm 20.302233 4.220823 -53.358453
LeftForeArm 11.683184 -0.000000 16.723074
LeftHand -26.177214 -0.000000 -6.056076
LeftHandThumb1 -26.253704 0.000000 33.147579
RightShoulder -18.641959 18.264988 -42.880800
RightArm -5.689735 30.236307 14.636031
RightForeArm 17.652334 -0.000000 26.872492
RightHand 1.147112 -0.000000 -4.746318
RightHandThumb1 -24.326973 -0.000000 -32.862282
LeftUpLeg 7.577375 -8.172606 -7.455143
LeftLeg -4.438481 -0.000000 0.000000
LeftFoot -13.151760 1.308378 -10.586261
LeftToeBase 4.657538 -0.000000 -0.000000
RightUpLeg -11.081860 -4.328060 15.774925
RightLeg 14.536854 -0.000000 -0.000000
RightFoot -13.927360 -14.958741 -4.170556
RightToeBase -5.101728 -0.000000 0.000000
237
root -8.352026 32.121769 -6.809973 9.361202 13.405421 0.134392
Spine -14.288508 -3.008264 -25.331084
Head -1.278272 -14.614062 -0.502256
LeftShoulder -12.624499 23.867781 11.825773
LeftArm 20.307712 4.350768 -53.417597
LeftForeArm 11.786045 -0.000000 16.665802
LeftHand -26.084129 -0.000000 -5.999859
LeftHandThumb1 -26.253704 0.000000 33.147579
RightShoulder -18.578054 18.359256 -42.964945
RightArm -5.493012 30.352397 14.462130
RightForeArm 17.975103 -0.000000 27.025526
RightHand 1.246337 0.000000 -4.661409
RightHandThumb1 -24.326973 -0.000000 -32.862282
LeftUpLeg 7.630401 -8.087502 -7.460437
LeftLeg -4.497251 -0.000000 0.000000
LeftFoot -13.155880 1.345234 -10.539663
LeftToeBase 4.567435 -0.000000 -0.000000
RightUpLeg -11.028131 -4.289991 15.773416
RightLeg 14.517106 -0.000000 -0.000000
RightFoot -13.895469 -14.859342 -4.154485
RightToeBase -5.120025 -0.000000 0.000000
238
root -8.400853 32.118301 -6.813492 9.323630 13.318720 0.212208
Spine -14.247658 -2.993772 -25.677635
Head -1.198127 -14.460012 -0.701550
LeftShoulder -12.607520 23.897796 11.741963
LeftArm 20.212475 4.532652 -53.456195
LeftForeArm 11.728268 -0.000000 16.677289
LeftHand -26.285022 -0.000000 -5.784553
LeftHandThumb1 -26.253704 0.000000 33.147579
RightShoulder -18.539813 18.414653 -43.084747
RightArm -5.240280 30.525706 14.337347
RightForeArm 18.352589 -0.000000 27.149899
RightHand 1.314309 -0.000000 -4.595937
RightHandThumb1 -24.326973 -0.000000 -32.862282
LeftUpLeg 7.685011 -8.044944 -7.477611
LeftLeg -4.544667 -0.000000 0.000000
LeftFoot -13.204132 1.380242 -10.563623
LeftToeBase 4.666686 -0.000000 -0.000000
RightUpLeg -10.965907 -4.311632 15.767184
RightLeg 14.468177 -0.000000 -0.000000
RightFoot -13.831833 -14.761616 -4.233045
RightToeBase -5.194275 -0.000000 0.000000
239
root -8.452126 32.115409 -6.822061 9.299647 13.225111 0.293909
Spine -14.210900 -2.966763 -26.046798
Head -1.115786 -14.395771 -0.854054
LeftShoulder -12.605360 24.022146 11.666290
LeftArm 20.248690 4.678865 -53.488134
LeftForeArm 11.771480 -0.000000 16.629764
LeftHand -26.253915 -0.000000 -5.801679
LeftHandThumb1 -26.253704 0.000000 33.147579
RightShoulder -18.551150 18.465119 -43.172973
RightArm -4.903076 30.666094 14.232578
RightForeArm 18.730149 -0.000000 27.228432
RightHand 1.476365 -0.000000 -4.531296
RightHandThumb1 -24.326973 -0.000000 -32.862282
LeftUpLeg 7.709288 -8.051181 -7.498287
LeftLeg -4.577830 -0.000000 0.000000
LeftFoot -13.253905 1.464647 -10.596631
LeftToeBase 4.704364 -0.000000 -0.000000
RightUpLeg -10.934968 -4.268417 15.752791
RightLeg 14.458601 -0.000000 -0.000000
RightFoot -13.855455 -14.672251 -4.161112
RightToeBase -5.019198 -0.000000 0.000000
240
root -8.505756 32.114132 -6.830859 9.268614 13.144878 0.397918
Spine -14.135861 -2.951807 -26.462964
Head -1.097199 -14.295343 -0.956342
LeftShoulder -12.578663 24.044408 11.619506
LeftArm 20.185804 4.823605 -53.514952
LeftForeArm 11.717821 0.000000 16.626644
LeftHand -26.339415 0.000000 -5.542252
LeftHandThumb1 -26.253704 0.000000 33.147579
RightShoulder -18.477797 18.334010 -43.130846
RightArm -4.639559 31.059720 14.049793
RightForeArm 19.030688 -0.000000 27.373861
RightHand 1.442244 -0.000000 -4.441584
RightHandThumb1 -24.326973 -0.000000 -32.862282
LeftUpLeg 7.738781 -8.129558 -7.539018
LeftLeg -4.595523 -0.000000 0.000000
LeftFoot -13.308497 1.589016 -10.689336
LeftToeBase 4.708882 -0.000000 -0.000000
RightUpLeg -10.894055 -4.198733 15.723818
RightLeg 14.431085 -0.000000 -0.000000
RightFoot -13.790305 -14.647713 -4.152062
RightToeBase -5.144125 -0.000000 0.000000
241
root -8.555155 32.112054 -6.838148 9.222222 13.068808 0.495630
Spine -14.059922 -2.918817 -26.843304
Head -1.078450 -14.198328 -1.140274
LeftShoulder -12.546463 24.088879 11.550565
LeftArm 20.129431 4.932622 -53.569367
LeftForeArm 11.904754 -0.000000 16.622443
LeftHand -26.330690 0.000000 -5.501037
LeftHandThumb1 -26.253704 0.000000 33.147579
RightShoulder -18.538493 18.739834 -43.441811
RightArm -4.472667 30.917154 13.984622
RightForeArm 19.351636 -0.000000 27.471774
RightHand 1.511698 -0.000000 -4.289143
RightHandThumb1 -24.326973 -0.000000 -32.862282
LeftUpLeg 7.775419 -8.091035 -7.567563
LeftLeg -4.598135 -0.000000 0.000000
LeftFoot -13.342056 1.591889 -10.724144
LeftToeBase 4.724908 -0.000000 -0.000000
RightUpLeg -10.831116 -4.195758 15.694324
RightLeg 14.401586 -0.000000 -0.000000
RightFoot -13.778227 -14.551644 -4.131197
RightToeBase -5.063600 -0.000000 0.000000
242
root -8.606944 32.109992 -6.847307 9.211276 12.979138 0.574279
Spine -14.050766 -2.882408 -27.201179
Head -0.980331 -14.096344 -1.352030
LeftShoulder -12.490641 24.055555 11.493402
LeftArm 19.990043 5.108455 -53.597576
LeftForeArm 12.044718 0.000000 16.639540
LeftHand -26.388724 -0.000000 -5.554272
LeftHandThumb1 -26.253704 0.000000 33.147579
RightShoulder -18.509547 18.820921 -43.541101
RightArm -4.206953 31.035568 13.833263
RightForeArm 19.624728 -0.000000 27.524059
RightHand 1.644436 -0.000000 -4.146933
RightHandThumb1 -24.326973 -0.000000 -32.862282
LeftUpLeg 7.768074 -8.115857 -7.580381
LeftLeg -4.596990 -0.000000 0.000000
LeftFoot -13.425062 1.673396 -10.766423
LeftToeBase 4.786531 -0.000000 -0.000000
RightUpLeg -10.811090 -4.134720 15.683996
RightLeg 14.381110 -0.000000 -0.000000
RightFoot -13.756716 -14.469493 -4.102945
RightToeBase -5.017031 -0.000000 0.000000
